<svg version="1.1" xmlns="http://www.w3.org/2000/svg" viewBox="0 0 1035.2815773104726 1065.6914915126006" width="2070.563154620945" height="2131.382983025201">
  <!-- svg-source:excalidraw -->
  
  <defs>
    <style class="style-fonts">
      @font-face {
        font-family: "Virgil";
        src: url("https://excalidraw.com/Virgil.woff2");
      }
      @font-face {
        font-family: "Cascadia";
        src: url("https://excalidraw.com/Cascadia.woff2");
      }
      @font-face {
        font-family: "Assistant";
        src: url("https://excalidraw.com/Assistant-Regular.woff2");
      }
    </style>
    
  </defs>
  <g transform="translate(189.2042965509138 10) rotate(0 39.27000045776367 12.5)"><text x="0" y="0" font-family="Virgil, Segoe UI Emoji" font-size="20px" fill="#1e1e1e" text-anchor="start" style="white-space: pre;" direction="ltr" dominant-baseline="text-before-edge">Adapter</text></g><g transform="translate(381.90255519436664 10) rotate(0 36.93000030517578 12.5)"><text x="0" y="0" font-family="Virgil, Segoe UI Emoji" font-size="20px" fill="#1e1e1e" text-anchor="start" style="white-space: pre;" direction="ltr" dominant-baseline="text-before-edge">WebView</text></g><g transform="translate(579.4238833473607 10) rotate(0 46.16999816894531 12.5)"><text x="0" y="0" font-family="Virgil, Segoe UI Emoji" font-size="20px" fill="#1e1e1e" text-anchor="start" style="white-space: pre;" direction="ltr" dominant-baseline="text-before-edge">JS Engine</text></g><g transform="translate(821.2192538678389 10) rotate(0 13.34000015258789 12.5)"><text x="0" y="0" font-family="Virgil, Segoe UI Emoji" font-size="20px" fill="#1e1e1e" text-anchor="start" style="white-space: pre;" direction="ltr" dominant-baseline="text-before-edge">OS</text></g><g stroke-linecap="round"><g transform="translate(224.61361273978036 53.21870292117718) rotate(0 0 483.4464941628473)"><path d="M0.62 1.09 C0.58 162.05, -0.39 805.46, -0.42 966.24 M-0.51 0.62 C-0.73 161.68, -1.66 806.45, -1.6 967.43" stroke="#1e1e1e" stroke-width="2" fill="none"></path></g></g><mask></mask><g stroke-linecap="round"><g transform="translate(418.6970584319963 51.861121519074814) rotate(0 0 501.77384309122954)"><path d="M0.71 0.44 C0.72 167.5, -1.04 835.45, -0.97 1002.72 M-0.38 -0.37 C0.1 166.79, 1.02 836.77, 1.24 1003.83" stroke="#1e1e1e" stroke-width="2" fill="none"></path></g></g><mask></mask><g stroke-linecap="round"><g transform="translate(631.5690744484416 51.861121519074814) rotate(0 0 444.75542420292925)"><path d="M-0.72 0.94 C-1 149.24, -0.76 742.35, -0.8 890.32 M1.1 0.39 C1.13 148.31, 1.44 740.4, 1.5 888.62" stroke="#1e1e1e" stroke-width="2" fill="none"></path></g></g><mask></mask><g stroke-linecap="round"><g transform="translate(835.5259690362188 51.861121519074814) rotate(0 1.1368683772161603e-13 416.92500545983023)"><path d="M0.04 0.05 C0.23 138.99, 0.34 693.89, 0.48 833.02 M-1.4 -0.97 C-1.26 138.16, -0.54 695.13, -0.21 834.12" stroke="#1e1e1e" stroke-width="2" fill="none"></path></g></g><mask></mask><g stroke-linecap="round"><g transform="translate(31.01072777717218 95.59875641514226) rotate(0 96.38827954927001 0)"><path d="M-1.13 0.51 C31.11 0.72, 161.33 0.51, 193.72 0.46 M0.47 -0.27 C32.62 -0.36, 161.24 -1.74, 193.27 -1.42" stroke="#1e1e1e" stroke-width="2" fill="none"></path></g><g transform="translate(31.01072777717218 95.59875641514226) rotate(0 96.38827954927001 0)"><path d="M169.8 7.17 C178.23 6.21, 185.68 2.61, 193.27 -1.42 M169.8 7.17 C177.22 5.21, 185.2 1.54, 193.27 -1.42" stroke="#1e1e1e" stroke-width="2" fill="none"></path></g><g transform="translate(31.01072777717218 95.59875641514226) rotate(0 96.38827954927001 0)"><path d="M169.77 -9.93 C178.1 -5.4, 185.56 -3.51, 193.27 -1.42 M169.77 -9.93 C177.09 -6.45, 185.09 -4.68, 193.27 -1.42" stroke="#1e1e1e" stroke-width="2" fill="none"></path></g></g><mask></mask><g transform="translate(62.23510002552757 63.01680276468481) rotate(0 54.3900032043457 12.5)"><text x="0" y="0" font-family="Virgil, Segoe UI Emoji" font-size="20px" fill="#1e1e1e" text-anchor="start" style="white-space: pre;" direction="ltr" dominant-baseline="text-before-edge">Launch App</text></g><g stroke-linecap="round"><g transform="translate(225.14486827781457 375.9213627344334) rotate(0 202.2796289132566 0)"><path d="M0.69 -0.78 C68.23 -0.82, 337.44 -0.46, 404.94 -0.31 M-0.41 1.43 C67.04 1.58, 336.54 1.05, 404.2 1.06" stroke="#1e1e1e" stroke-width="2" fill="none"></path></g><g transform="translate(225.14486827781457 375.9213627344334) rotate(0 202.2796289132566 0)"><path d="M380.71 9.64 C385.8 7.81, 392.95 6.76, 404.2 1.06 M380.71 9.64 C388.2 6.89, 395.09 3.61, 404.2 1.06" stroke="#1e1e1e" stroke-width="2" fill="none"></path></g><g transform="translate(225.14486827781457 375.9213627344334) rotate(0 202.2796289132566 0)"><path d="M380.7 -7.47 C385.77 -4.64, 392.93 -1.06, 404.2 1.06 M380.7 -7.47 C388.18 -4.94, 395.08 -2.96, 404.2 1.06" stroke="#1e1e1e" stroke-width="2" fill="none"></path></g></g><mask></mask><g transform="translate(271.302635949296 350.9152231049999) rotate(0 131.74002075195312 25)"><text x="0" y="0" font-family="Virgil, Segoe UI Emoji" font-size="20px" fill="#1e1e1e" text-anchor="start" style="white-space: pre;" direction="ltr" dominant-baseline="text-before-edge">Initialize JS context with </text><text x="0" y="25" font-family="Virgil, Segoe UI Emoji" font-size="20px" fill="#1e1e1e" text-anchor="start" style="white-space: pre;" direction="ltr" dominant-baseline="text-before-edge">Backend Script</text></g><g stroke-linecap="round"><g transform="translate(225.14486827781457 469.9275023638668) rotate(0 97.0670702503212 0)"><path d="M-1.16 -0.13 C31.03 -0.24, 161.31 -1.12, 193.95 -1.16 M0.43 -1.25 C32.38 -1.21, 160.62 -0.56, 192.91 -0.23" stroke="#1e1e1e" stroke-width="2" fill="none"></path></g><g transform="translate(225.14486827781457 469.9275023638668) rotate(0 97.0670702503212 0)"><path d="M169.36 8.15 C177.81 5.01, 184.73 3.14, 192.91 -0.23 M169.36 8.15 C176.42 5.56, 181.92 3.54, 192.91 -0.23" stroke="#1e1e1e" stroke-width="2" fill="none"></path></g><g transform="translate(225.14486827781457 469.9275023638668) rotate(0 97.0670702503212 0)"><path d="M169.48 -8.95 C177.82 -5.82, 184.7 -1.42, 192.91 -0.23 M169.48 -8.95 C176.56 -6.95, 182.02 -4.38, 192.91 -0.23" stroke="#1e1e1e" stroke-width="2" fill="none"></path></g></g><mask></mask><g transform="translate(256.3692405261695 446.35168834284286) rotate(0 43.87000274658203 25)"><text x="0" y="0" font-family="Virgil, Segoe UI Emoji" font-size="20px" fill="#1e1e1e" text-anchor="start" style="white-space: pre;" direction="ltr" dominant-baseline="text-before-edge">Launches</text><text x="0" y="25" font-family="Virgil, Segoe UI Emoji" font-size="20px" fill="#1e1e1e" text-anchor="start" style="white-space: pre;" direction="ltr" dominant-baseline="text-before-edge">WebView</text></g><g stroke-linecap="round"><g transform="translate(989.4631976614619 208.30871093680855) rotate(0 -78.06093062088758 0)"><path d="M-0.17 -0.02 C-26.49 -0.03, -130.53 1.06, -156.71 1.13 M-1.72 -1.07 C-27.74 -0.88, -128.77 -0.29, -154.31 -0.4" stroke="#1e1e1e" stroke-width="2" fill="none"></path></g><g transform="translate(989.4631976614619 208.30871093680855) rotate(0 -78.06093062088758 0)"><path d="M-130.83 -8.99 C-140.14 -6.57, -147.6 -4.02, -154.31 -0.4 M-130.83 -8.99 C-138.06 -5.54, -147.19 -3.31, -154.31 -0.4" stroke="#1e1e1e" stroke-width="2" fill="none"></path></g><g transform="translate(989.4631976614619 208.30871093680855) rotate(0 -78.06093062088758 0)"><path d="M-130.8 8.11 C-140.29 3.7, -147.76 -0.57, -154.31 -0.4 M-130.8 8.11 C-138.13 5.83, -147.26 2.34, -154.31 -0.4" stroke="#1e1e1e" stroke-width="2" fill="none"></path></g></g><mask></mask><g transform="translate(871.7532431397963 174.22982710106777) rotate(0 50.349998474121094 12.5)"><text x="0" y="0" font-family="Virgil, Segoe UI Emoji" font-size="20px" fill="#1e1e1e" text-anchor="start" style="white-space: pre;" direction="ltr" dominant-baseline="text-before-edge">Loads File</text></g><g transform="translate(958.4015800570546 10) rotate(0 33.439998626708984 12.5)"><text x="0" y="0" font-family="Virgil, Segoe UI Emoji" font-size="20px" fill="#1e1e1e" text-anchor="start" style="white-space: pre;" direction="ltr" dominant-baseline="text-before-edge">Esbuild</text></g><g stroke-linecap="round"><g transform="translate(990.3568534527658 51.861121519074814) rotate(0 0 352.4398888599665)"><path d="M-0.82 -0.37 C-0.73 117.43, 0.27 587.94, 0.28 705.63 M0.95 -1.61 C0.93 115.96, -0.65 586.32, -0.52 703.9" stroke="#1e1e1e" stroke-width="2" fill="none"></path></g></g><mask></mask><g stroke-linecap="round"><g transform="translate(225.14486827781457 140.33233810764762) rotate(0 380.8015832897213 0)"><path d="M-0.41 -1.05 C126.76 -1.01, 635.78 -0.46, 762.77 -0.44 M1.57 1.01 C128.72 1.28, 635.91 1.06, 762.44 0.86" stroke="#1e1e1e" stroke-width="2" fill="none"></path></g><g transform="translate(225.14486827781457 140.33233810764762) rotate(0 380.8015832897213 0)"><path d="M738.95 9.43 C743.73 9.09, 751.22 4.69, 762.44 0.86 M738.95 9.43 C743.37 6.87, 749.12 6.33, 762.44 0.86" stroke="#1e1e1e" stroke-width="2" fill="none"></path></g><g transform="translate(225.14486827781457 140.33233810764762) rotate(0 380.8015832897213 0)"><path d="M738.94 -7.67 C743.62 -3.29, 751.12 -2.97, 762.44 0.86 M738.94 -7.67 C743.35 -6.5, 749.1 -3.31, 762.44 0.86" stroke="#1e1e1e" stroke-width="2" fill="none"></path></g></g><mask></mask><g transform="translate(359.94505454719365 111.25345427190702) rotate(0 186.83998107910156 12.5)"><text x="0" y="0" font-family="Virgil, Segoe UI Emoji" font-size="20px" fill="#1e1e1e" text-anchor="start" style="white-space: pre;" direction="ltr" dominant-baseline="text-before-edge">Builds/Bundles Backend JS Entrypoint</text></g><g stroke-linecap="round"><g transform="translate(986.7480348572572 247.678571597778) rotate(0 -76.7033492187852 0)"><path d="M0.14 -0.12 C-25.41 -0.06, -128.58 0, -154.32 -0.16" stroke="#1e1e1e" stroke-width="2.5" fill="none" stroke-dasharray="8 10"></path></g><g transform="translate(986.7480348572572 247.678571597778) rotate(0 -76.7033492187852 0)"><path d="M-23.34 8.44 C-18.46 5.04, -13.47 3.19, 0.14 -0.12" stroke="#1e1e1e" stroke-width="2.5" fill="none"></path></g><g transform="translate(986.7480348572572 247.678571597778) rotate(0 -76.7033492187852 0)"><path d="M-23.35 -8.66 C-18.54 -8.39, -13.55 -6.56, 0.14 -0.12" stroke="#1e1e1e" stroke-width="2.5" fill="none"></path></g></g><mask></mask><g stroke-linecap="round"><g transform="translate(988.1056162593595 294.76359506295205) rotate(0 -381.4803739907725 0)"><path d="M1.07 -0.38 C-125.81 -0.43, -635.18 -0.62, -762.37 -0.63" stroke="#1e1e1e" stroke-width="2.5" fill="none" stroke-dasharray="8 10"></path></g><g transform="translate(988.1056162593595 294.76359506295205) rotate(0 -381.4803739907725 0)"><path d="M-738.88 -9.18 C-744.44 -6.21, -749.74 -4, -762.37 -0.63" stroke="#1e1e1e" stroke-width="2.5" fill="none"></path></g><g transform="translate(988.1056162593595 294.76359506295205) rotate(0 -381.4803739907725 0)"><path d="M-738.88 7.93 C-744.39 7.33, -749.69 5.98, -762.37 -0.63" stroke="#1e1e1e" stroke-width="2.5" fill="none"></path></g></g><mask></mask><g transform="translate(460.40607830277077 270.18778104192825) rotate(0 70.2699966430664 12.5)"><text x="0" y="0" font-family="Virgil, Segoe UI Emoji" font-size="20px" fill="#1e1e1e" text-anchor="start" style="white-space: pre;" direction="ltr" dominant-baseline="text-before-edge">Bundled Script</text></g><g stroke-linecap="round"><g transform="translate(225.14486827781457 557.7399678921129) rotate(0 97.0670702503212 0)"><path d="M-0.57 0.92 C31.84 1.2, 160.98 1.02, 193.3 0.92 M1.33 0.36 C34.22 0.38, 163.15 -0.96, 195.57 -0.72" stroke="#1e1e1e" stroke-width="2" fill="none"></path></g><g transform="translate(225.14486827781457 557.7399678921129) rotate(0 97.0670702503212 0)"><path d="M22.93 -7.61 C19.65 -7.39, 14.87 -5.56, -0.57 0.92 M22.93 -7.61 C16.18 -5.35, 8.25 -2.73, -0.57 0.92" stroke="#1e1e1e" stroke-width="2" fill="none"></path></g><g transform="translate(225.14486827781457 557.7399678921129) rotate(0 97.0670702503212 0)"><path d="M22.92 9.49 C19.74 6.25, 14.96 4.6, -0.57 0.92 M22.92 9.49 C16.11 6.21, 8.17 3.3, -0.57 0.92" stroke="#1e1e1e" stroke-width="2" fill="none"></path></g></g><mask></mask><g transform="translate(259.1510079072482 534.164153871089) rotate(0 71.83000183105469 25)"><text x="0" y="0" font-family="Virgil, Segoe UI Emoji" font-size="20px" fill="#1e1e1e" text-anchor="start" style="white-space: pre;" direction="ltr" dominant-baseline="text-before-edge">Requests Files</text><text x="0" y="25" font-family="Virgil, Segoe UI Emoji" font-size="20px" fill="#1e1e1e" text-anchor="start" style="white-space: pre;" direction="ltr" dominant-baseline="text-before-edge">(index.html)</text></g><g stroke-linecap="round"><g transform="translate(223.7872868757122 643.0677824939426) rotate(0 205.67358241851264 0)"><path d="M0.4 0.48 C68.89 0.23, 342.19 -0.44, 410.68 -0.42 M-0.85 -0.31 C68.05 0.12, 344.47 1.08, 413.04 0.9" stroke="#1e1e1e" stroke-width="2" fill="none"></path></g><g transform="translate(223.7872868757122 643.0677824939426) rotate(0 205.67358241851264 0)"><path d="M389.53 9.43 C396.8 5.86, 401.83 4.59, 413.04 0.9 M389.53 9.43 C397.75 6.13, 406.44 4.21, 413.04 0.9" stroke="#1e1e1e" stroke-width="2" fill="none"></path></g><g transform="translate(223.7872868757122 643.0677824939426) rotate(0 205.67358241851264 0)"><path d="M389.55 -7.67 C396.97 -6.48, 401.99 -3, 413.04 0.9 M389.55 -7.67 C397.67 -4.92, 406.34 -0.8, 413.04 0.9" stroke="#1e1e1e" stroke-width="2" fill="none"></path></g></g><mask></mask><g transform="translate(271.302635949296 619.4192242666115) rotate(0 153.9399871826172 12.5)"><text x="0" y="0" font-family="Virgil, Segoe UI Emoji" font-size="20px" fill="#1e1e1e" text-anchor="start" style="white-space: pre;" direction="ltr" dominant-baseline="text-before-edge">Sends Requests to JS context</text></g><g stroke-linecap="round"><g transform="translate(223.7872868757122 704.225550165424) rotate(0 205.67358241851264 0)"><path d="M1 -0.61 C69.47 -0.61, 343.55 0.93, 411.8 1.19 M0.07 1.68 C68.34 1.88, 342.28 0.13, 411.09 -0.31" stroke="#1e1e1e" stroke-width="2" fill="none"></path></g><g transform="translate(223.7872868757122 704.225550165424) rotate(0 205.67358241851264 0)"><path d="M24.53 -9.06 C14.63 -4.9, 8.66 -3.89, 1 -0.61 M24.53 -9.06 C15.28 -6.51, 7.17 -3.47, 1 -0.61" stroke="#1e1e1e" stroke-width="2" fill="none"></path></g><g transform="translate(223.7872868757122 704.225550165424) rotate(0 205.67358241851264 0)"><path d="M24.46 8.04 C14.41 5.69, 8.47 0.18, 1 -0.61 M24.46 8.04 C15.38 4.16, 7.29 0.77, 1 -0.61" stroke="#1e1e1e" stroke-width="2" fill="none"></path></g></g><mask></mask><g transform="translate(340.53928745651797 680.576991938093) rotate(0 102.3900146484375 12.5)"><text x="0" y="0" font-family="Virgil, Segoe UI Emoji" font-size="20px" fill="#1e1e1e" text-anchor="start" style="white-space: pre;" direction="ltr" dominant-baseline="text-before-edge">OS Call (file system)</text></g><g stroke-linecap="round"><g transform="translate(223.7872868757122 764.8863876516223) rotate(0 306.13460617408975 0)"><path d="M-1.13 0.39 C100.9 0.36, 510.32 0.21, 612.43 0.29 M0.48 -0.45 C102.35 -0.91, 509.31 -1.59, 611.57 -1.68" stroke="#1e1e1e" stroke-width="2" fill="none"></path></g><g transform="translate(223.7872868757122 764.8863876516223) rotate(0 306.13460617408975 0)"><path d="M588.09 6.9 C596.24 4.64, 603.61 0.4, 611.57 -1.68 M588.09 6.9 C596.92 3.72, 605.26 0.69, 611.57 -1.68" stroke="#1e1e1e" stroke-width="2" fill="none"></path></g><g transform="translate(223.7872868757122 764.8863876516223) rotate(0 306.13460617408975 0)"><path d="M588.06 -10.2 C596.29 -6.97, 603.67 -5.73, 611.57 -1.68 M588.06 -10.2 C597.03 -6.98, 605.38 -3.6, 611.57 -1.68" stroke="#1e1e1e" stroke-width="2" fill="none"></path></g></g><mask></mask><g transform="translate(415.20626457214985 741.2378294242912) rotate(0 105.8899917602539 12.5)"><text x="0" y="0" font-family="Virgil, Segoe UI Emoji" font-size="20px" fill="#1e1e1e" text-anchor="start" style="white-space: pre;" direction="ltr" dominant-baseline="text-before-edge">Adapted function call</text></g><g transform="translate(881.2563129545133 220.38759477254916) rotate(0 26.790000915527344 12.5)"><text x="0" y="0" font-family="Virgil, Segoe UI Emoji" font-size="20px" fill="#1e1e1e" text-anchor="start" style="white-space: pre;" direction="ltr" dominant-baseline="text-before-edge">Data</text></g><g stroke-linecap="round"><g transform="translate(222.42970547360983 815.1168995294108) rotate(0 306.81339687514094 0)"><path d="M-0.3 -0.81 C102.15 -0.85, 511.57 -0.31, 613.86 -0.19" stroke="#1e1e1e" stroke-width="2.5" fill="none" stroke-dasharray="8 10"></path></g><g transform="translate(222.42970547360983 815.1168995294108) rotate(0 306.81339687514094 0)"><path d="M23.2 -9.34 C16.51 -7.07, 12.22 -5.8, -0.3 -0.81" stroke="#1e1e1e" stroke-width="2.5" fill="none"></path></g><g transform="translate(222.42970547360983 815.1168995294108) rotate(0 306.81339687514094 0)"><path d="M23.18 7.76 C16.49 6.15, 12.21 3.53, -0.3 -0.81" stroke="#1e1e1e" stroke-width="2.5" fill="none"></path></g></g><mask></mask><g transform="translate(484.4429160793718 787.3955970957727) rotate(0 26.790000915527344 12.5)"><text x="0" y="0" font-family="Virgil, Segoe UI Emoji" font-size="20px" fill="#1e1e1e" text-anchor="start" style="white-space: pre;" direction="ltr" dominant-baseline="text-before-edge">Data</text></g><g stroke-linecap="round"><g transform="translate(222.42970547360983 865.3474114071994) rotate(0 204.99479171746145 0)"><path d="M-1.18 0.13 C66.95 0.22, 340.83 0.03, 409.26 0.05" stroke="#1e1e1e" stroke-width="2.5" fill="none" stroke-dasharray="8 10"></path></g><g transform="translate(222.42970547360983 865.3474114071994) rotate(0 204.99479171746145 0)"><path d="M385.77 8.61 C393.99 4.73, 401.81 2.05, 409.26 0.05" stroke="#1e1e1e" stroke-width="2.5" fill="none"></path></g><g transform="translate(222.42970547360983 865.3474114071994) rotate(0 204.99479171746145 0)"><path d="M385.77 -8.49 C393.91 -6.58, 401.74 -3.46, 409.26 0.05" stroke="#1e1e1e" stroke-width="2.5" fill="none"></path></g></g><mask></mask><g transform="translate(484.4429160793718 838.9836903756636) rotate(0 26.790000915527344 12.5)"><text x="0" y="0" font-family="Virgil, Segoe UI Emoji" font-size="20px" fill="#1e1e1e" text-anchor="start" style="white-space: pre;" direction="ltr" dominant-baseline="text-before-edge">Data</text></g><g stroke-linecap="round"><g transform="translate(222.42970547360983 918.2930860891927) rotate(0 204.99479171746145 0)"><path d="M0.59 1.05 C68.93 0.86, 341.37 0.21, 409.47 -0.02" stroke="#1e1e1e" stroke-width="2.5" fill="none" stroke-dasharray="8 10"></path></g><g transform="translate(222.42970547360983 918.2930860891927) rotate(0 204.99479171746145 0)"><path d="M24.06 -7.56 C19.95 -6.12, 12.21 -4.41, 0.59 1.05" stroke="#1e1e1e" stroke-width="2.5" fill="none"></path></g><g transform="translate(222.42970547360983 918.2930860891927) rotate(0 204.99479171746145 0)"><path d="M24.1 9.54 C19.81 6.65, 12.06 4.01, 0.59 1.05" stroke="#1e1e1e" stroke-width="2.5" fill="none"></path></g></g><mask></mask><g transform="translate(369.40607830277077 891.9293650576569) rotate(0 64.99000549316406 12.5)"><text x="0" y="0" font-family="Virgil, Segoe UI Emoji" font-size="20px" fill="#1e1e1e" text-anchor="start" style="white-space: pre;" direction="ltr" dominant-baseline="text-before-edge">Ends request</text></g><g stroke-linecap="round"><g transform="translate(222.42970547360983 982.0994119880053) rotate(0 94.35190744611668 0)"><path d="M0.42 0.86 C31.84 0.86, 157.9 1.12, 189.13 0.85" stroke="#1e1e1e" stroke-width="2.5" fill="none" stroke-dasharray="8 10"></path></g><g transform="translate(222.42970547360983 982.0994119880053) rotate(0 94.35190744611668 0)"><path d="M165.66 9.46 C175.27 7.06, 183.5 1.79, 189.13 0.85" stroke="#1e1e1e" stroke-width="2.5" fill="none"></path></g><g transform="translate(222.42970547360983 982.0994119880053) rotate(0 94.35190744611668 0)"><path d="M165.61 -7.64 C175.36 -4.03, 183.61 -3.3, 189.13 0.85" stroke="#1e1e1e" stroke-width="2.5" fill="none"></path></g></g><mask></mask><g transform="translate(246.7206822988387 956.4508537606744) rotate(0 60.130001068115234 25)"><text x="0" y="0" font-family="Virgil, Segoe UI Emoji" font-size="20px" fill="#1e1e1e" text-anchor="start" style="white-space: pre;" direction="ltr" dominant-baseline="text-before-edge">Responds to</text><text x="0" y="25" font-family="Virgil, Segoe UI Emoji" font-size="20px" fill="#1e1e1e" text-anchor="start" style="white-space: pre;" direction="ltr" dominant-baseline="text-before-edge">request</text></g><g stroke-linecap="round"><g transform="translate(10.647006745636418 1044.5481564847153) rotate(0 204.99479171746145 0)"><path d="M-0.65 -0.46 C67.93 -0.46, 342.66 -0.25, 410.93 -0.34" stroke="#1e1e1e" stroke-width="2.5" fill="none" stroke-dasharray="8 10"></path></g><g transform="translate(10.647006745636418 1044.5481564847153) rotate(0 204.99479171746145 0)"><path d="M22.85 -9 C15.99 -5.37, 10.13 -6.45, -0.65 -0.46" stroke="#1e1e1e" stroke-width="2.5" fill="none"></path></g><g transform="translate(10.647006745636418 1044.5481564847153) rotate(0 204.99479171746145 0)"><path d="M22.84 8.1 C16.04 7.33, 10.18 1.84, -0.65 -0.46" stroke="#1e1e1e" stroke-width="2.5" fill="none"></path></g></g><mask></mask><g transform="translate(70.38058843814201 1016.8268540510774) rotate(0 47.68000030517578 12.5)"><text x="0" y="0" font-family="Virgil, Segoe UI Emoji" font-size="20px" fill="#1e1e1e" text-anchor="start" style="white-space: pre;" direction="ltr" dominant-baseline="text-before-edge">Page View</text></g></svg>